<mxfile host="app.diagrams.net" modified="2022-03-23T07:28:21.502Z" agent="5.0 (Macintosh; Intel Mac OS X 10_15_7) AppleWebKit/537.36 (KHTML, like Gecko) Chrome/99.0.4844.83 Safari/537.36" etag="kshgyGK1TaqsnNnSrPW7" version="16.6.1" type="github">
  <diagram id="jG_LJXLIuNCT2EWfJ3CW" name="Page-1">
    <mxGraphModel dx="2032" dy="780" grid="1" gridSize="10" guides="1" tooltips="1" connect="1" arrows="1" fold="1" page="1" pageScale="1" pageWidth="827" pageHeight="1169" math="0" shadow="0">
      <root>
        <mxCell id="0" />
        <mxCell id="1" parent="0" />
      </root>
    </mxGraphModel>
  </diagram>
</mxfile>
